<svg width="14" height="14" viewBox="0 0 14 14" fill="none" xmlns="http://www.w3.org/2000/svg">
<path fill-rule="evenodd" clip-rule="evenodd" d="M13.9241 0.617216C13.8757 0.500141 13.804 0.3904 13.7092 0.295017C13.7078 0.293599 13.7064 0.292185 13.705 0.290776C13.5242 0.111056 13.2751 0 13 0H12.9998H3C2.44772 0 2 0.447715 2 1C2 1.55228 2.44772 2 3 2H10.5858L0.292893 12.2929C-0.0976312 12.6834 -0.0976312 13.3166 0.292893 13.7071C0.683417 14.0976 1.31658 14.0976 1.70711 13.7071L12 3.41421V11C12 11.5523 12.4477 12 13 12C13.5523 12 14 11.5523 14 11V1.00069V1C14 0.999 14 0.998 14 0.997001C13.9996 0.862504 13.9727 0.734253 13.9241 0.617216Z" fill="#F4662A"/>
</svg>
