<svg width="36" height="36" viewBox="0 0 36 36" fill="none" xmlns="http://www.w3.org/2000/svg">
<path fill-rule="evenodd" clip-rule="evenodd" d="M18 18C21.3137 18 24 15.3137 24 12C24 8.68629 21.3137 6 18 6C14.6863 6 12 8.68629 12 12C12 15.3137 14.6863 18 18 18ZM18 20C22.4183 20 26 16.4183 26 12C26 7.58172 22.4183 4 18 4C13.5817 4 10 7.58172 10 12C10 16.4183 13.5817 20 18 20ZM3 16C2.44772 16 2 16.4477 2 17C2 17.5523 2.44772 18 3 18C3.77508 18 4.7372 18.2976 5.9046 18.8434C6.9333 19.3243 8.02542 19.9499 9.19145 20.6179L9.19266 20.6186C9.33692 20.7012 9.48232 20.7845 9.62886 20.8682C10.9393 21.617 12.33 22.3949 13.7194 22.9833C15.1055 23.5704 16.5597 24 18 24C19.4403 24 20.8945 23.5704 22.2806 22.9833C23.67 22.3949 25.0607 21.617 26.3711 20.8682C26.5181 20.7843 26.6639 20.7008 26.8085 20.6179L26.8086 20.6179C27.9746 19.9499 29.0667 19.3243 30.0954 18.8434C31.2628 18.2976 32.2249 18 33 18C33.5523 18 34 17.5523 34 17C34 16.4477 33.5523 16 33 16C31.7751 16 30.4872 16.4524 29.2483 17.0316C28.1389 17.5503 26.9695 18.2205 25.816 18.8815C25.67 18.9652 25.5242 19.0487 25.3789 19.1318C24.0643 19.883 22.7675 20.6051 21.5006 21.1417C20.2305 21.6796 19.0597 22 18 22C16.9403 22 15.7695 21.6796 14.4994 21.1417C13.2325 20.6051 11.9358 19.883 10.6211 19.1318C10.4758 19.0487 10.33 18.9652 10.184 18.8815L10.184 18.8815C9.03054 18.2205 7.86111 17.5503 6.75165 17.0316C5.5128 16.4524 4.22492 16 3 16ZM2 23C2 22.4477 2.44772 22 3 22C4.171 22 5.23807 22.294 6.26724 22.6924C6.9319 22.9497 7.63329 23.2736 8.34279 23.6013L8.34294 23.6013L8.34309 23.6014L8.34324 23.6015L8.34339 23.6016C8.6968 23.7648 9.05224 23.9289 9.40614 24.0862C11.5841 25.0542 14.1902 26 18 26C21.8098 26 24.4159 25.0542 26.5939 24.0862C26.948 23.9288 27.3036 23.7646 27.6572 23.6013L27.6573 23.6013C28.3667 23.2736 29.0681 22.9497 29.7328 22.6924C30.7619 22.294 31.829 22 33 22C33.5523 22 34 22.4477 34 23C34 23.5523 33.5523 24 33 24C32.171 24 31.3631 24.206 30.4547 24.5576C29.8463 24.7931 29.2461 25.0706 28.5777 25.3796L28.5774 25.3798L28.5771 25.3799C28.2114 25.549 27.8253 25.7275 27.4061 25.9138C25.0841 26.9458 22.1902 28 18 28C13.8098 28 10.9159 26.9458 8.59386 25.9138C8.17449 25.7274 7.78814 25.5488 7.42225 25.3796L7.4222 25.3796C6.75384 25.0706 6.15372 24.7931 5.54526 24.5576C4.63693 24.206 3.829 24 3 24C2.44772 24 2 23.5523 2 23ZM2 31C2 30.4477 2.44772 30 3 30H33C33.5523 30 34 30.4477 34 31C34 31.5523 33.5523 32 33 32H3C2.44772 32 2 31.5523 2 31ZM16 12C16 10.8954 16.8954 10 18 10C18.5523 10 19 9.55228 19 9C19 8.44772 18.5523 8 18 8C15.7909 8 14 9.79086 14 12C14 12.5523 14.4477 13 15 13C15.5523 13 16 12.5523 16 12Z" fill="#232427"/>
</svg>
