<svg width="36" height="36" viewBox="0 0 36 36" fill="none" xmlns="http://www.w3.org/2000/svg">
<path d="M7 18C7 15.2386 9.23858 13 12 13H24C26.7614 13 29 15.2386 29 18V30C29 32.7614 26.7614 35 24 35H12C9.23858 35 7 32.7614 7 30V18Z" stroke="#232427" stroke-width="2"/>
<rect x="24" y="8" width="2" height="5" fill="#232427"/>
<rect x="10" y="8" width="2" height="5" fill="#232427"/>
<path fill-rule="evenodd" clip-rule="evenodd" d="M19 23.7324C19.5978 23.3866 20 22.7403 20 22C20 20.8954 19.1046 20 18 20C16.8954 20 16 20.8954 16 22C16 22.7403 16.4022 23.3866 17 23.7324V27C17 27.5523 17.4477 28 18 28C18.5523 28 19 27.5523 19 27V23.7324Z" fill="#232427"/>
<path d="M25 8C25 4.13401 21.866 1 18 1C14.134 1 11 4.13401 11 8" stroke="#232427" stroke-width="2"/>
</svg>
