<svg width="36" height="36" viewBox="0 0 36 36" fill="none" xmlns="http://www.w3.org/2000/svg">
<path fill-rule="evenodd" clip-rule="evenodd" d="M2 24H6V33C6 33.5523 6.44772 34 7 34C7.55228 34 8 33.5523 8 33V24V22H6.16125L10 17.2016L13.8387 22H12V24V33C12 33.5523 12.4477 34 13 34C13.5523 34 14 33.5523 14 33V24H18L10 14L2 24Z" fill="#232427"/>
<path fill-rule="evenodd" clip-rule="evenodd" d="M18 12H22V27C22 27.5523 22.4477 28 23 28C23.5523 28 24 27.5523 24 27V12V10H22.1612L26 5.20156L29.8387 10H28V12V27C28 27.5523 28.4477 28 29 28C29.5523 28 30 27.5523 30 27V12H34L26 2L18 12Z" fill="#232427"/>
</svg>
