<svg width="36" height="36" viewBox="0 0 36 36" fill="none" xmlns="http://www.w3.org/2000/svg">
<path d="M12.3114 13.7574C9.95508 11.4142 6.13476 11.4142 3.77846 13.7574C1.42215 16.1005 1.42215 19.8995 3.77846 22.2426C6.13476 24.5858 9.95508 24.5858 12.3114 22.2426L15.1557 19.4142L16.5778 20.8284L13.7335 23.6569C10.5918 26.781 5.49804 26.781 2.3563 23.6569C-0.785434 20.5327 -0.785434 15.4673 2.3563 12.3431C5.49804 9.21895 10.5918 9.21895 13.7335 12.3431L23.6886 22.2426C26.0449 24.5858 29.8652 24.5858 32.2215 22.2426C34.5778 19.8995 34.5778 16.1005 32.2215 13.7574C29.8652 11.4142 26.0449 11.4142 23.6886 13.7574L20.8443 16.5858L19.4222 15.1716L22.2665 12.3431C25.4082 9.21895 30.502 9.21895 33.6437 12.3431C36.7854 15.4673 36.7854 20.5327 33.6437 23.6569C30.502 26.781 25.4082 26.781 22.2665 23.6569L12.3114 13.7574Z" fill="#232427"/>
</svg>
