<svg width="53" height="56" viewBox="0 0 53 56" fill="none" xmlns="http://www.w3.org/2000/svg">
<path d="M28.2604 19.3178L28.11 19.19C20.0996 10.7694 6.88558 15.6572 11.0491 27.57C12.9019 32.7983 19.5207 38.7449 24.267 41.1588C25.6043 41.8405 26.851 42.3706 27.9842 42.8543L28.1082 42.9038L28.2604 42.9686L28.4102 42.9081L28.5386 42.8543C29.6939 42.3706 30.9597 41.8405 32.3192 41.1588C37.1432 38.7449 43.8754 32.7983 45.7565 27.57C49.9892 15.6572 36.5562 10.7694 28.4127 19.19L28.2604 19.3178Z" fill="#D74E22"/>
<path d="M20.6909 16.6353C14.8811 15.6949 9.71555 19.7088 12.3668 27.0752C13.3847 29.864 15.997 32.9461 18.8487 35.4437C16.4496 33.0867 14.3983 30.416 13.5043 27.9618C10.929 20.8113 15.2312 16.6114 20.6909 16.6353Z" fill="#FEFEFE"/>
<path d="M7.35416 36.7215C8.8659 38.818 10.7107 40.8504 12.8267 42.7525C19.0712 48.3629 25.2837 50.6429 27.933 51.5661C33.2268 53.4059 33.6726 52.5902 31.5677 51.0116C29.3659 49.3595 28.1957 46.9977 29.8838 46.4192L30.2383 46.3288H30.2408L30.3493 46.3135L30.4646 46.3007L30.5861 46.292L30.6626 46.2877L30.7211 46.2859C31.1194 46.2664 31.5258 46.3869 31.9352 46.3807C37.9836 46.2767 44.1917 44.7586 47.6518 39.2779C46.6123 42.3575 43.1429 45.4318 35.4501 47.6293C34.0055 48.0413 33.8403 50.265 38.1211 52.888C40.5072 54.301 41.2354 55.1424 40.9135 55.5862C40.6329 56.0436 39.2716 56.0803 37.4311 55.8968L37.2554 55.8797L37.0766 55.8602C21.4616 54.1371 2.71024 43.268 0.252605 27.2787L0.189696 26.8343L0.157052 26.5604L0.145944 26.4784C-1.17231 15.1825 6.38854 3.99415 24.9163 2.69791C27.8436 2.49311 29.8228 2.61844 30.7711 2.35744C32.1892 1.96672 28.9837 0.0125777 29.0138 0.0125777C36.3244 -0.328006 48.5958 6.309 51.498 12.5381C51.8999 13.2975 52.2027 14.0802 52.35 14.8609C53.2182 19.4747 47.7413 14.5314 45.6943 13.2241C35.1345 6.48143 21.3359 3.99236 11.5412 10.7325C1.43393 17.6887 1.35561 27.8419 7.35416 36.7215Z" fill="#2B2A29"/>
<path d="M47.8047 39.1457C44.9267 43.4012 38.5298 46.1514 30.5867 46.2956C27.9633 46.3433 29.2205 49.0329 31.6047 50.8727L31.6459 50.9052L31.7174 50.9614L31.8001 51.0218L31.818 51.0347L31.8266 51.0433L31.8328 51.0476L31.9178 51.11L31.9352 51.1252L31.9635 51.1448L31.9918 51.1662L32.0375 51.2029L32.0548 51.2138L32.0917 51.2413L32.1003 51.2506L32.1177 51.2634L32.1288 51.2719L32.1331 51.2738L32.2835 51.3905L32.3136 51.4145L32.3181 51.4187L32.3199 51.4205L32.3482 51.4426L32.3895 51.4744L32.4179 51.4963L32.4309 51.5067L32.4574 51.5288L32.4857 51.5501L32.5375 51.5911L32.5658 51.6125V51.615L32.6139 51.6534L32.6183 51.6559L32.6442 51.6774L32.6725 51.6987L32.6965 51.7208L32.7096 51.7311L32.7508 51.7617L32.7749 51.7831L32.8181 51.8198L32.8989 51.8864L32.9032 51.8907L32.905 51.8932L32.9599 51.9384L33.0246 51.9947H33.0271L33.0511 52.016V52.0178L33.1467 52.1005L33.1639 52.1151L33.2793 52.2208L33.2817 52.2233L33.3033 52.2423C34.5542 53.4028 34.5888 54.1469 28.9751 52.2141C28.6008 52.087 28.1396 51.9255 27.6068 51.7293H27.6044L27.5613 51.7122L27.2456 51.5954L27.187 51.5716L26.7653 51.412L26.7258 51.3949L26.5149 51.3129L26.5106 51.3105L26.4563 51.289L26.0322 51.121L26.0279 51.1185L25.8145 51.0323L25.7776 51.0176L25.6511 50.9656L25.5907 50.94L25.5229 50.9118C25.275 50.8079 25.0186 50.7002 24.7571 50.5859L24.7245 50.5706L24.6597 50.5425L24.1985 50.3358L24.172 50.3248L24.1677 50.323L24.0265 50.2583L23.9223 50.2105L23.8829 50.1934L23.7392 50.1268L23.6701 50.0944L23.5351 50.0314C22.789 49.6798 22.006 49.2897 21.1947 48.8538L20.9856 48.7419L20.9838 48.7395L20.8229 48.6532L20.7662 48.6209L20.6639 48.5628L20.5011 48.4723C20.2964 48.358 20.0917 48.2412 19.8851 48.1225L19.8481 48.1011L19.6853 48.0039L19.52 47.9073L19.3524 47.8076L19.2698 47.7582L19.2673 47.7563L19.0934 47.6505L18.8628 47.5099L18.8542 47.5056L18.6865 47.3998H18.6847L18.5194 47.2965V47.2946C16.7141 46.1599 14.8496 44.8013 13.0511 43.1854C1.96475 33.2223 -1.13898 19.4635 11.5418 10.7361C12.4987 10.0782 13.3884 9.51574 14.4846 9.0541C13.1621 9.55857 10.974 10.5423 8.82714 12.2243C4.99458 15.2337 3.38717 18.9995 2.49318 23.6541C2.59123 23.5508 2.40194 20.6063 3.35883 18.1025C4.23128 15.8244 6.0384 13.7412 6.13452 13.6502C7.42194 12.4835 8.84005 11.4479 10.3561 10.5484C13.0857 8.96979 16.2005 7.79214 19.1958 7.10861C22.1232 6.46116 25.1881 6.20915 28.2679 6.37731L27.9854 6.31864C33.1078 6.61887 36.9034 7.78539 40.6965 9.72672C41.9648 10.376 44.6313 11.6447 46.7344 13.353C48.9269 15.134 50.7347 16.3294 51.4043 16.1656C51.7304 16.0317 51.837 15.1536 51.6521 14.3753C50.1231 7.93467 40.3394 2.04357 32.6226 1.25C33.0572 1.39669 34.3884 1.85586 35.6265 2.64775C37.56 3.88149 38.9997 5.37399 36.309 4.88672C31.0498 3.92926 26.1037 3.70479 20.9924 4.44036C15.8262 5.39782 11.1219 7.01992 7.28695 9.39716C1.60781 14.0818 -0.775807 20.5934 0.25261 27.2823C0.894393 31.4584 2.65221 35.2864 5.17083 38.6927C11.9567 46.6086 21.945 51.1099 32.0116 54.2269C36.179 55.2364 42.8347 55.9958 34.8478 51.4077C33.1355 50.424 31.6392 49.1515 31.5788 48.1898C31.5437 47.6181 32.1614 47.2837 33.5407 46.9816C36.888 46.2504 39.287 46.0241 42.3321 44.2939C44.4205 43.1077 46.4452 41.5222 47.8047 39.1457Z" fill="#D74E22"/>
<path d="M5.02721 14.715C13.4272 6.08059 28.4115 3.71684 40.6705 9.46967C41.7816 9.9783 46.243 12.405 47.9114 13.9147C49.832 15.604 50.5126 15.0922 50.4103 13.9862C49.9948 10.9535 46.941 7.56015 39.8678 3.89162L39.8893 3.90635C39.1323 3.52665 38.3911 3.17753 37.6839 2.85594C37.3053 2.67497 36.9225 2.54537 37.621 2.98307C40.0984 4.55571 43.0911 6.81604 42.7237 7.51733C42.2496 8.09947 37.6925 5.96615 32.1268 5.27835C20.9943 4.01032 11.3482 5.74247 4.25281 12.446C0.916038 16.559 -0.586518 21.8111 0.252606 27.2814C0.894389 31.4575 2.65221 35.2855 5.17083 38.6918C9.23405 43.4327 14.1819 47.1641 19.657 50.0654C23.1584 51.9204 28.2394 53.6868 31.4912 54.0861C29.5971 53.3548 24.701 52.2653 20.9727 50.1149C18.4781 48.6762 13.3533 45.7127 11.0541 43.5299C2.41485 35.3246 -1.8524 23.0883 5.02721 14.715Z" fill="#F39314"/>
<path d="M34.2928 6.66543C36.3355 7.25173 38.4368 7.90963 39.1063 8.1903C43.8872 10.1786 46.7104 12.019 48.9466 13.9467C49.4751 14.4928 50.3321 14.7685 49.4448 13.55C47.2042 11.0394 42.395 8.85428 39.0194 7.65279C37.3948 7.05548 33.8558 6.0589 31.3044 5.7073C21.699 4.22154 13.2879 6.60664 9.28394 9.26635C10.2538 8.80718 20.5572 3.25307 34.2928 6.66543Z" fill="#FFED00"/>
<path d="M1.28533 23.7778C0.358585 39.6203 18.7666 51.7361 32.7915 54.3762C17.6489 50.6465 1.63988 39.0381 2.5511 23.1933C2.80817 18.6376 4.89402 14.7203 8.23884 11.8864L8.25675 11.8711C4.16711 14.6279 1.57017 18.8039 1.28533 23.7778Z" fill="#FFED00"/>
<path d="M48.0665 10.3767C47.7617 10.077 47.4029 9.93034 47.261 10.0489C47.1197 10.1651 47.2505 10.5063 47.5551 10.8041C47.8598 11.1055 48.2206 11.2522 48.3601 11.1336C48.5012 11.015 48.3687 10.6763 48.0665 10.3767Z" fill="#2B2A29"/>
</svg>
