<svg width="8" height="10" viewBox="0 0 8 10" fill="none" xmlns="http://www.w3.org/2000/svg">
<path d="M1 4C1 2.34315 2.34315 1 4 1C5.65685 1 7 2.34315 7 4C7 5.10381 6.43776 6.3774 5.71652 7.39916C5.36036 7.90371 4.98125 8.32394 4.64401 8.612C4.47515 8.75623 4.3259 8.8595 4.20344 8.92438C4.14276 8.95652 4.09387 8.97646 4.05678 8.9879C4.03856 8.99351 4.02463 8.99663 4.01475 8.9983C4.00988 8.99912 4.00622 8.99955 4.00372 8.99978L4.00093 8.99997L3.99995 9L3.99807 8.99992C3.99678 8.99983 3.99488 8.99967 3.99233 8.99935C3.98718 8.99871 3.97977 8.99748 3.96995 8.99519C3.94999 8.99054 3.92272 8.98213 3.88784 8.96773C3.81706 8.9385 3.72757 8.88989 3.62125 8.8171C3.40809 8.67118 3.15799 8.44934 2.89492 8.16222C2.70837 7.95862 2.39209 7.9448 2.18849 8.13134C1.98489 8.31789 1.97106 8.63417 2.15761 8.83778C2.45575 9.16317 2.76282 9.44133 3.05637 9.64228C3.33257 9.83135 3.66521 10 4 10C4.24045 10 4.47283 9.91332 4.67156 9.80804C4.87723 9.69909 5.08735 9.54846 5.29349 9.37237C5.70625 9.01981 6.13964 8.53379 6.53348 7.97584C7.31224 6.8726 8 5.39619 8 4C8 1.79086 6.20914 0 4 0C1.79086 0 0 1.79086 0 4C0 4.92326 0.300736 5.87545 0.718462 6.72138C0.840728 6.96898 1.14056 7.07059 1.38816 6.94832C1.63576 6.82605 1.73737 6.52622 1.6151 6.27862C1.23813 5.51523 1 4.71818 1 4Z" fill="#232427"/>
<path d="M4 5C4.55228 5 5 4.55228 5 4C5 3.44772 4.55228 3 4 3C3.44772 3 3 3.44772 3 4C3 4.55228 3.44772 5 4 5Z" fill="#232427"/>
</svg>
