<svg width="10" height="10" viewBox="0 0 10 10" fill="none" xmlns="http://www.w3.org/2000/svg">
<path d="M4.5 9.5C4.5 9.77614 4.72386 10 5 10C7.76142 10 10 7.76142 10 5C10 2.23858 7.76142 0 5 0C2.23858 0 0 2.23858 0 5C0 6.37892 0.55885 7.62826 1.46122 8.53228C1.6563 8.72772 1.97289 8.72801 2.16833 8.53293C2.36377 8.33785 2.36406 8.02126 2.16897 7.82582C1.4461 7.10163 1 6.10339 1 5C1 2.79086 2.79086 1 5 1C7.20914 1 9 2.79086 9 5C9 7.20914 7.20914 9 5 9C4.72386 9 4.5 9.22386 4.5 9.5Z" fill="#232427"/>
<path d="M5 2C5.27614 2 5.5 2.22386 5.5 2.5V4.73241L6.77735 5.58397C7.00711 5.73715 7.0692 6.04759 6.91603 6.27735C6.76285 6.50711 6.45241 6.5692 6.22265 6.41603L4.72911 5.42033C4.71653 5.4122 4.70433 5.40353 4.69256 5.39434C4.63596 5.3503 4.59118 5.29607 4.55909 5.236C4.52689 5.17597 4.5066 5.10861 4.50135 5.03706C4.50024 5.02217 4.49978 5.00722 4.5 4.99224V2.5C4.5 2.22386 4.72386 2 5 2Z" fill="#232427"/>
</svg>
