<svg width="26" height="15" viewBox="0 0 26 15" fill="none" xmlns="http://www.w3.org/2000/svg">
<path fill-rule="evenodd" clip-rule="evenodd" d="M22.5845 10.0889C22.5845 10.0889 22.9479 10.4612 23.6748 11.2058C24.4017 11.9504 24.8973 12.5518 25.1616 13.01C25.1822 13.055 25.1864 13.0591 25.1864 13.0591C25.2855 13.2391 25.3474 13.3945 25.3722 13.5255C25.397 13.6564 25.3846 13.7709 25.3351 13.8691C25.2525 14.0328 25.0996 14.1555 24.8766 14.2373C24.6536 14.3192 24.4925 14.3682 24.3934 14.3846C24.3934 14.3846 23.7987 14.3846 22.6093 14.3846C21.4198 14.3846 20.8003 14.3846 20.7508 14.3846C20.6351 14.3846 20.4534 14.356 20.2056 14.2987C19.9578 14.2414 19.6687 14.0982 19.3383 13.8691C19.0905 13.7055 18.8468 13.4927 18.6073 13.2309C18.3677 12.9691 18.1323 12.7072 17.9011 12.4454C17.5541 12.0363 17.2237 11.6803 16.9099 11.3776C16.596 11.0748 16.2821 10.9235 15.9682 10.9235C15.9352 10.9235 15.898 10.9276 15.8567 10.9357C15.8154 10.9439 15.7782 10.9562 15.7452 10.9726C15.5139 11.038 15.2785 11.2589 15.039 11.6353C14.7994 12.0117 14.6797 12.6418 14.6797 13.5255C14.6797 13.8037 14.5971 14.0164 14.4319 14.1637C14.2667 14.311 14.1015 14.3846 13.9363 14.3846C13.9363 14.3846 13.6719 14.3846 13.1433 14.3846C12.6147 14.3846 12.3256 14.3846 12.276 14.3846C11.9952 14.3846 11.2311 14.2373 9.98385 13.9428C8.73659 13.6482 7.46043 12.8218 6.15535 11.4635C5.36239 10.6289 4.59834 9.63475 3.8632 8.48103C3.12806 7.32731 2.47965 6.22679 1.91797 5.17944C1.35629 4.1321 0.906123 3.23613 0.567462 2.49153C0.228801 1.74693 0.0594724 1.36646 0.0594724 1.35009C-0.0396481 1.13735 -0.0148683 0.973703 0.133812 0.859148C0.282493 0.744596 0.455951 0.687319 0.654192 0.687319H4.32163C4.56943 0.687319 4.74289 0.748686 4.84201 0.871424C4.94113 0.994158 5.02373 1.12099 5.08981 1.2519C5.15589 1.39919 5.30457 1.74284 5.53585 2.28288C5.76713 2.82292 6.08101 3.43659 6.47749 4.12392C7.12177 5.23672 7.65041 6.0345 8.06341 6.51726C8.47641 7.00002 8.83985 7.2414 9.15373 7.2414C9.21981 7.2414 9.28176 7.23322 9.33957 7.21685C9.3974 7.20049 9.45108 7.17594 9.50064 7.14321C9.91365 6.93047 10.1243 6.29634 10.1325 5.24081C10.1408 4.18528 10.1367 3.51024 10.1201 3.21567C10.1201 3.16658 10.1036 2.91702 10.0706 2.46698C10.0375 2.01695 9.91365 1.64466 9.69888 1.35009C9.5502 1.15371 9.36436 1.01052 9.14133 0.920518C8.91831 0.830511 8.73247 0.769144 8.58379 0.736414C8.63335 0.670956 8.69942 0.601404 8.78203 0.527764C8.86463 0.454121 8.95548 0.384572 9.05461 0.319114C9.33545 0.188195 9.71127 0.102279 10.1821 0.061367C10.6529 0.0204546 11.1361 0 11.6317 0H12.2017C12.7468 0.0163637 13.1268 0.0409124 13.3415 0.0736398C13.5563 0.10637 13.7628 0.147283 13.961 0.196377C14.3575 0.294565 14.5888 0.507306 14.6549 0.834602C14.721 1.1619 14.7375 1.7592 14.7044 2.62654C14.6879 2.88838 14.6755 3.1584 14.6673 3.4366C14.659 3.7148 14.6549 4.01754 14.6549 4.34484C14.6549 4.42666 14.6549 4.5044 14.6549 4.57804C14.6549 4.65168 14.6549 4.72941 14.6549 4.81124C14.6384 5.25309 14.6508 5.69902 14.6921 6.14905C14.7334 6.59909 14.9192 6.92229 15.2496 7.11867C15.2826 7.1514 15.3239 7.17594 15.3735 7.19231C15.4231 7.20867 15.4726 7.21685 15.5222 7.21685C15.6213 7.21685 15.865 7.08594 16.2532 6.8241C16.6414 6.56226 17.2898 5.67039 18.1984 4.14847C18.5784 3.47751 18.9046 2.81883 19.1772 2.17242C19.4498 1.52601 19.6026 1.17008 19.6357 1.10462C19.6522 1.07189 19.6852 1.01871 19.7348 0.945063C19.7843 0.871424 19.8422 0.818238 19.9082 0.785508C19.9578 0.752777 20.0115 0.732323 20.0693 0.724141C20.1271 0.715959 20.1726 0.711868 20.2056 0.711868H24.4925C24.7403 0.711868 24.9386 0.728232 25.0873 0.760959C25.2359 0.79369 25.3268 0.859148 25.3598 0.957336C25.4094 1.08826 25.3351 1.42373 25.1368 1.96377C24.9386 2.50381 24.3521 3.42841 23.3774 4.7376C23.2122 4.9667 23.0553 5.17535 22.9066 5.36355C22.7579 5.55174 22.6175 5.72766 22.4854 5.89131C21.5933 7.05321 21.1514 7.82235 21.1596 8.19874C21.1679 8.57513 21.6428 9.20517 22.5845 10.0889Z"/>
</svg>
