<svg width="24" height="24" viewBox="0 0 24 24" fill="none" xmlns="http://www.w3.org/2000/svg">
<g clip-path="url(#clip0_241_4011)">
<path fill-rule="evenodd" clip-rule="evenodd" d="M1.93518 17.9037L0.271484 23.9773L6.4872 22.348C8.20637 23.2836 10.1324 23.7739 12.0897 23.7741H12.095C18.5564 23.7741 23.8189 18.5169 23.8189 12.0531C23.8194 10.5131 23.5165 8.988 22.9276 7.56501C22.3386 6.14203 21.4751 4.84901 20.3863 3.75981C19.2976 2.67062 18.0049 1.80658 16.5821 1.21705C15.1594 0.62752 13.6344 0.324051 12.0944 0.323975C5.63177 0.323975 0.369897 5.5806 0.369897 12.0444C0.367309 14.1012 0.907228 16.1222 1.93518 17.9037ZM8.37711 6.44058C8.59432 6.44932 8.83249 6.45922 9.06018 6.96467C9.21539 7.30995 9.47499 7.95299 9.68192 8.46554C9.83445 8.84336 9.95836 9.15027 9.99073 9.21477C10.067 9.36675 10.1177 9.54378 10.0164 9.74643C10.0009 9.77738 9.98659 9.80655 9.97296 9.8344C9.89735 9.98886 9.84173 10.1025 9.71296 10.2525C9.66133 10.3126 9.60795 10.3775 9.55463 10.4424C9.45099 10.5684 9.34756 10.6942 9.25759 10.7841C9.1056 10.9373 8.94954 11.0992 9.12423 11.4031C9.29893 11.7071 9.91037 12.7 10.813 13.5047C11.782 14.3691 12.6245 14.7346 13.0518 14.92C13.1355 14.9563 13.2032 14.9857 13.2529 15.0106C13.5563 15.1626 13.7327 15.137 13.9103 14.9343C14.088 14.7317 14.6685 14.0492 14.8712 13.7452C15.0738 13.4413 15.2759 13.4925 15.5542 13.5933C15.8326 13.694 17.3239 14.4289 17.6279 14.5803C17.6854 14.609 17.7393 14.6349 17.7893 14.659C18.0033 14.7622 18.147 14.8314 18.2102 14.9343C18.2882 15.0613 18.2888 15.6681 18.0355 16.3768C17.7822 17.0854 16.5419 17.7668 15.9869 17.8198C15.9347 17.8247 15.8827 17.831 15.8292 17.8375C15.3152 17.8998 14.6666 17.9785 12.3456 17.0627C9.49622 15.9386 7.61702 13.1534 7.22829 12.5773C7.19637 12.53 7.1745 12.4976 7.16297 12.4822L7.16097 12.4795C7.00172 12.2672 5.92379 10.8302 5.92379 9.34346C5.92379 7.94624 6.61018 7.214 6.92642 6.87663C6.94812 6.85349 6.96807 6.8322 6.98594 6.81269C7.0873 6.69705 7.21148 6.60363 7.35068 6.53829C7.48987 6.47296 7.64108 6.43711 7.79479 6.43301C7.80749 6.43301 7.8202 6.43301 7.8329 6.43301C8.02345 6.43297 8.21333 6.43294 8.37711 6.44058Z" />
</g>
<defs>
<clipPath id="clip0_241_4011">
<rect width="24" height="24" />
</clipPath>
</defs>
</svg>
