<svg width="416" height="312" viewBox="0 0 416 312" fill="none" xmlns="http://www.w3.org/2000/svg">
<g style="mix-blend-mode:multiply">
<path fill-rule="evenodd" clip-rule="evenodd" d="M112 120C112 186.274 104.837 280 96 280C87.1634 280 80 186.274 80 120C80 53.7258 87.1634 40 96 40C104.837 40 112 53.7258 112 120ZM110 120C110 153.079 108.212 193.018 105.322 224.671C103.876 240.506 102.16 254.214 100.265 263.937C99.3144 268.814 98.3363 272.596 97.3593 275.122C96.8664 276.396 96.4176 277.232 96.0478 277.716C96.0312 277.737 96.0153 277.758 96 277.777C95.9847 277.758 95.9688 277.737 95.9522 277.716C95.5824 277.232 95.1336 276.396 94.6407 275.122C93.6637 272.596 92.6856 268.814 91.7351 263.937C89.8402 254.214 88.1236 240.506 86.678 224.671C83.7883 193.018 82 153.079 82 120C82 86.8816 83.7949 67.0902 86.6279 55.627C88.0465 49.8868 89.6793 46.4372 91.3154 44.4523C92.8697 42.5666 94.4189 42 96 42C97.5811 42 99.1303 42.5666 100.685 44.4523C102.321 46.4372 103.953 49.8868 105.372 55.627C108.205 67.0902 110 86.8816 110 120ZM95.7246 278.058C95.724 278.058 95.7237 278.058 95.7237 278.058C95.7237 278.059 95.7277 278.057 95.7356 278.051C95.7298 278.054 95.7261 278.056 95.7246 278.058ZM96.2644 278.051C96.2724 278.055 96.2764 278.058 96.2763 278.058C96.2763 278.059 96.2723 278.057 96.2644 278.051Z" fill="#E2E9ED"/>
<path fill-rule="evenodd" clip-rule="evenodd" d="M136 280C144.837 280 152 186.274 152 120C152 53.7258 144.837 40 136 40C127.163 40 120 53.7258 120 120C120 186.274 127.163 280 136 280ZM145.322 224.671C148.212 193.018 150 153.079 150 120C150 86.8816 148.205 67.0902 145.372 55.627C143.953 49.8868 142.321 46.4372 140.685 44.4523C139.13 42.5666 137.581 42 136 42C134.419 42 132.87 42.5666 131.315 44.4523C129.679 46.4372 128.047 49.8868 126.628 55.627C123.795 67.0902 122 86.8816 122 120C122 153.079 123.788 193.018 126.678 224.671C128.124 240.506 129.84 254.214 131.735 263.937C132.686 268.814 133.664 272.596 134.641 275.122C135.134 276.396 135.582 277.232 135.952 277.716C135.969 277.737 135.985 277.758 136 277.777L136.017 277.755C136.027 277.743 136.037 277.729 136.048 277.716C136.418 277.232 136.866 276.396 137.359 275.122C138.336 272.596 139.314 268.814 140.265 263.937C142.16 254.214 143.876 240.506 145.322 224.671ZM135.724 278.058C135.724 278.058 135.728 278.055 135.736 278.051C135.728 278.057 135.724 278.059 135.724 278.058ZM136.264 278.051L136.271 278.055C136.275 278.057 136.276 278.058 136.276 278.058C136.276 278.059 136.272 278.057 136.264 278.051Z" fill="#E2E9ED"/>
<path fill-rule="evenodd" clip-rule="evenodd" d="M256 126C256 192.274 234.51 280 208 280C181.49 280 160 192.274 160 126C160 59.7258 181.49 40 208 40C234.51 40 256 59.7258 256 126ZM254 126C254 158.957 248.652 197.27 240.019 227.3C235.699 242.326 230.589 255.166 224.984 264.203C219.287 273.389 213.493 278 208 278C202.507 278 196.713 273.389 191.016 264.203C185.411 255.166 180.301 242.326 175.981 227.3C167.348 197.27 162 158.957 162 126C162 93.013 167.36 71.98 175.73 59.2457C183.999 46.6644 195.328 42 208 42C220.672 42 232.001 46.6644 240.27 59.2457C248.64 71.98 254 93.013 254 126Z" fill="#E2E9ED"/>
<path fill-rule="evenodd" clip-rule="evenodd" d="M296 120C296 186.274 288.837 280 280 280C271.163 280 264 186.274 264 120C264 53.7258 271.163 40 280 40C288.837 40 296 53.7258 296 120ZM294 120C294 153.079 292.212 193.018 289.322 224.671C287.876 240.506 286.16 254.214 284.265 263.937C283.314 268.814 282.336 272.596 281.359 275.122C280.866 276.396 280.418 277.232 280.048 277.716C280.031 277.737 280.015 277.758 280 277.777C279.985 277.758 279.969 277.737 279.952 277.716C279.582 277.232 279.134 276.396 278.641 275.122C277.664 272.596 276.686 268.814 275.735 263.937C273.84 254.214 272.124 240.506 270.678 224.671C267.788 193.018 266 153.079 266 120C266 86.8816 267.795 67.0902 270.628 55.627C272.047 49.8868 273.679 46.4372 275.315 44.4523C276.87 42.5666 278.419 42 280 42C281.581 42 283.13 42.5666 284.685 44.4523C286.321 46.4372 287.953 49.8868 289.372 55.627C292.205 67.0902 294 86.8816 294 120ZM279.736 278.051C279.728 278.055 279.724 278.058 279.724 278.058C279.723 278.059 279.724 278.058 279.724 278.058L279.727 278.057C279.729 278.056 279.732 278.054 279.736 278.051ZM280.276 278.058C280.276 278.058 280.272 278.055 280.264 278.051C280.268 278.053 280.27 278.055 280.272 278.056L280.275 278.058C280.276 278.058 280.276 278.058 280.276 278.058C280.276 278.058 280.276 278.058 280.276 278.058Z" fill="#E2E9ED"/>
</g>
</svg>
