<svg width="416" height="312" viewBox="0 0 416 312" fill="none" xmlns="http://www.w3.org/2000/svg">
<g style="mix-blend-mode:multiply" clip-path="url(#clip0_2693_5286)">
<path fill-rule="evenodd" clip-rule="evenodd" d="M-27.1176 174.471C-32.3968 184.369 -37.7068 199.282 -43.0337 219.258L-44.9662 218.742C-39.6265 198.718 -34.2698 183.631 -28.8823 173.529C-26.1892 168.48 -23.4618 164.625 -20.6839 162.02C-17.9015 159.412 -15.0023 158 -12 158C-8.99764 158 -6.09842 159.412 -3.31601 162.02C-0.53812 164.625 2.18933 168.48 4.8824 173.529C10.2699 183.631 15.6266 198.718 20.9663 218.742C26.2932 238.718 31.6032 253.631 36.8824 263.529C39.5227 268.48 42.1285 272.125 44.684 274.52C47.2349 276.912 49.669 278 52 278C54.3311 278 56.7652 276.912 59.3161 274.52C61.8716 272.125 64.4774 268.48 67.1177 263.529C72.3969 253.631 77.7069 238.718 83.0338 218.742C88.3735 198.718 93.7302 183.631 99.1177 173.529C101.811 168.48 104.538 164.625 107.316 162.02C110.099 159.412 112.998 158 116 158C119.002 158 121.902 159.412 124.684 162.02C127.462 164.625 130.189 168.48 132.882 173.529C138.27 183.631 143.627 198.718 148.966 218.742C154.293 238.718 159.603 253.631 164.882 263.529C167.523 268.48 170.129 272.125 172.684 274.52C175.235 276.912 177.669 278 180 278C182.331 278 184.765 276.912 187.316 274.52C189.872 272.125 192.477 268.48 195.118 263.529C200.397 253.631 205.707 238.718 211.034 218.742C216.374 198.718 221.73 183.631 227.118 173.529C229.811 168.48 232.538 164.625 235.316 162.02C238.099 159.412 240.998 158 244 158C247.002 158 249.902 159.412 252.684 162.02C255.462 164.625 258.189 168.48 260.882 173.529C266.27 183.631 271.627 198.718 276.966 218.742C282.293 238.718 287.603 253.631 292.882 263.529C295.523 268.48 298.129 272.125 300.684 274.52C303.235 276.912 305.669 278 308 278C310.331 278 312.765 276.912 315.316 274.52C317.872 272.125 320.477 268.48 323.118 263.529C328.397 253.631 333.707 238.718 339.034 218.742C344.374 198.718 349.73 183.631 355.118 173.529C357.811 168.48 360.538 164.625 363.316 162.02C366.099 159.412 368.998 158 372 158C375.002 158 377.902 159.412 380.684 162.02C383.462 164.625 386.189 168.48 388.882 173.529C394.27 183.631 399.627 198.718 404.966 218.742C410.293 238.718 415.603 253.631 420.882 263.529C423.523 268.48 426.129 272.125 428.684 274.52C431.235 276.912 433.669 278 436 278C438.331 278 440.765 276.912 443.316 274.52C445.872 272.125 448.477 268.48 451.118 263.529C456.397 253.631 461.707 238.718 467.034 218.742L468.966 219.258C463.627 239.282 458.27 254.369 452.882 264.471C450.189 269.52 447.462 273.375 444.684 275.98C441.902 278.588 439.002 280 436 280C432.998 280 430.099 278.588 427.316 275.98C424.538 273.375 421.811 269.52 419.118 264.471C413.73 254.369 408.374 239.282 403.034 219.258C397.707 199.282 392.397 184.369 387.118 174.471C384.477 169.52 381.872 165.875 379.316 163.48C376.765 161.088 374.331 160 372 160C369.669 160 367.235 161.088 364.684 163.48C362.129 165.875 359.523 169.52 356.882 174.471C351.603 184.369 346.293 199.282 340.966 219.258C335.627 239.282 330.27 254.369 324.882 264.471C322.189 269.52 319.462 273.375 316.684 275.98C313.902 278.588 311.002 280 308 280C304.998 280 302.099 278.588 299.316 275.98C296.538 273.375 293.811 269.52 291.118 264.471C285.73 254.369 280.374 239.282 275.034 219.258C269.707 199.282 264.397 184.369 259.118 174.471C256.477 169.52 253.872 165.875 251.316 163.48C248.765 161.088 246.331 160 244 160C241.669 160 239.235 161.088 236.684 163.48C234.129 165.875 231.523 169.52 228.882 174.471C223.603 184.369 218.293 199.282 212.966 219.258C207.627 239.282 202.27 254.369 196.882 264.471C194.189 269.52 191.462 273.375 188.684 275.98C185.902 278.588 183.002 280 180 280C176.998 280 174.099 278.588 171.316 275.98C168.538 273.375 165.811 269.52 163.118 264.471C157.73 254.369 152.374 239.282 147.034 219.258C141.707 199.282 136.397 184.369 131.118 174.471C128.477 169.52 125.872 165.875 123.316 163.48C120.765 161.088 118.331 160 116 160C113.669 160 111.235 161.088 108.684 163.48C106.129 165.875 103.523 169.52 100.882 174.471C95.6032 184.369 90.2932 199.282 84.9663 219.258C79.6266 239.282 74.2699 254.369 68.8824 264.471C66.1893 269.52 63.4619 273.375 60.684 275.98C57.9016 278.588 55.0024 280 52 280C48.9977 280 46.0985 278.588 43.3161 275.98C40.5382 273.375 37.8108 269.52 35.1177 264.471C29.7302 254.369 24.3735 239.282 19.0338 219.258C13.7069 199.282 8.39686 184.369 3.11769 174.471C0.477428 169.52 -2.12845 165.875 -4.68389 163.48C-7.23482 161.088 -9.66893 160 -12 160C-14.331 160 -16.7651 161.088 -19.316 163.48C-21.8715 165.875 -24.4773 169.52 -27.1176 174.471Z" fill="#E2E9ED"/>
</g>
<defs>
<clipPath id="clip0_2693_5286">
<rect width="416" height="312" fill="white"/>
</clipPath>
</defs>
</svg>
