<svg width="416" height="312" viewBox="0 0 416 312" fill="none" xmlns="http://www.w3.org/2000/svg">
<g style="mix-blend-mode:multiply" clip-path="url(#clip0_2693_5075)">
<path fill-rule="evenodd" clip-rule="evenodd" d="M-139 -130H-141C-141 -41.6344 -69.3656 30 19 30C84.1696 30 137 82.8304 137 148C137 183.346 165.654 212 201 212H250C275.405 212 296 232.595 296 258C296 275.673 310.327 290 328 290C340.15 290 350 299.85 350 312H352C352 298.745 341.255 288 328 288C311.431 288 298 274.569 298 258C298 231.49 276.51 210 250 210H201C168.413 210 141.698 184.859 139.192 152.916C141.365 155.991 144.948 158 149 158C155.627 158 161 152.627 161 146C161 139.373 155.627 134 149 134C144.642 134 140.826 136.323 138.724 139.799C134.509 77.3499 82.5179 28 19 28C-68.261 28 -139 -42.739 -139 -130ZM159 146C159 151.523 154.523 156 149 156C143.477 156 139 151.523 139 146C139 140.477 143.477 136 149 136C154.523 136 159 140.477 159 146Z" fill="#E2E9ED"/>
</g>
<defs>
<clipPath id="clip0_2693_5075">
<rect width="416" height="312" fill="white"/>
</clipPath>
</defs>
</svg>
