<svg width="416" height="312" viewBox="0 0 416 312" fill="none" xmlns="http://www.w3.org/2000/svg">
<g style="mix-blend-mode:multiply">
<path fill-rule="evenodd" clip-rule="evenodd" d="M202 24C209.284 24 215.431 28.8674 217.366 35.527C218.804 33.3991 221.239 32 224 32C226.761 32 229.196 33.3991 230.634 35.527C232.569 28.8674 238.716 24 246 24C254.837 24 262 31.1634 262 40C262 48.8366 254.837 56 246 56C237.163 56 230 48.8366 230 40C230 36.6863 227.314 34 224 34C220.686 34 218 36.6863 218 40C218 48.8366 210.837 56 202 56C193.163 56 186 48.8366 186 40C186 31.1634 193.163 24 202 24ZM216 40C216 47.732 209.732 54 202 54C194.268 54 188 47.732 188 40C188 32.268 194.268 26 202 26C209.732 26 216 32.268 216 40ZM246 54C238.268 54 232 47.732 232 40C232 32.268 238.268 26 246 26C253.732 26 260 32.268 260 40C260 47.732 253.732 54 246 54Z" fill="#E2E9ED"/>
<path d="M120 80C142.091 80 160 97.9086 160 120V280H158V120C158 99.0132 140.987 82 120 82C99.0132 82 82 99.0132 82 120H80C80 97.9086 97.9086 80 120 80Z" fill="#E2E9ED"/>
<path d="M264 120H262C262 99.0132 244.987 82 224 82C203.013 82 186 99.0132 186 120V280H184V120C184 97.9086 201.909 80 224 80C246.091 80 264 97.9086 264 120Z" fill="#E2E9ED"/>
</g>
</svg>
