<svg width="416" height="312" viewBox="0 0 416 312" fill="none" xmlns="http://www.w3.org/2000/svg">
<g style="mix-blend-mode:multiply" clip-path="url(#clip0_2693_5938)">
<path fill-rule="evenodd" clip-rule="evenodd" d="M240 40C240.476 40 240.886 40.3356 240.98 40.8023L288.557 276.703L311.219 248.375C311.409 248.138 311.696 248 312 248C312.304 248 312.591 248.138 312.781 248.375L335.251 276.463L359.005 40.8997C359.056 40.3888 359.487 40 360 40C360.513 40 360.943 40.3888 360.995 40.8997L384.792 276.887L415.316 248.27C415.701 247.91 416.299 247.91 416.684 248.27L448.684 278.27C449.087 278.648 449.107 279.281 448.729 279.684C448.352 280.087 447.719 280.107 447.316 279.73L416 250.371L384.684 279.73C384.406 279.99 384.005 280.07 383.649 279.936C383.293 279.803 383.043 279.479 383.005 279.1L360 50.9671L336.995 279.1C336.954 279.505 336.673 279.844 336.283 279.959C335.893 280.074 335.473 279.942 335.219 279.625L312 250.601L288.781 279.625C288.538 279.928 288.142 280.063 287.764 279.972C287.387 279.88 287.096 279.578 287.02 279.198L240 46.0581L192.98 279.198C192.886 279.664 192.476 280 192 280C191.524 280 191.114 279.665 191.02 279.199L160 126.038L128.98 279.199C128.903 279.578 128.614 279.879 128.238 279.971C127.862 280.063 127.467 279.93 127.223 279.63L104.484 251.569L80.7638 279.645C80.5164 279.938 80.1232 280.064 79.7517 279.969C79.3803 279.874 79.096 279.574 79.0199 279.199L48 126.038L16.9801 279.199C16.8963 279.612 16.562 279.928 16.1445 279.99C15.727 280.05 15.3162 279.843 15.1176 279.471L-4.76837e-05 251.125L-15.1177 279.471C-15.3776 279.958 -15.9833 280.142 -16.4706 279.882C-16.9579 279.622 -17.1423 279.017 -16.8824 278.529L-0.882401 248.529C-0.708607 248.204 -0.36936 248 -4.76837e-05 248C0.369265 248 0.708511 248.204 0.882305 248.529L15.5724 276.073L47.0199 120.801C47.1143 120.335 47.5242 120 48 120C48.4757 120 48.8856 120.335 48.9801 120.801L80.5698 276.776L103.736 249.355C103.928 249.127 104.212 248.997 104.51 249C104.808 249.003 105.089 249.139 105.277 249.37L127.441 276.722L159.02 120.801C159.114 120.335 159.524 120 160 120C160.476 120 160.886 120.335 160.98 120.801L191.998 273.952L239.02 40.8023C239.114 40.3356 239.524 40 240 40Z" fill="#E2E9ED"/>
</g>
<defs>
<clipPath id="clip0_2693_5938">
<rect width="416" height="312" fill="white"/>
</clipPath>
</defs>
</svg>
