<svg width="416" height="312" viewBox="0 0 416 312" fill="none" xmlns="http://www.w3.org/2000/svg">
<g style="mix-blend-mode:multiply">
<path d="M268.894 27.5528C268.647 27.0588 268.047 26.8586 267.553 27.1055C267.059 27.3525 266.859 27.9532 267.106 28.4472L279.543 53.3228L251.765 60.0279C251.414 60.1128 251.135 60.3809 251.037 60.7291C250.939 61.0773 251.037 61.4513 251.293 61.7071L263.586 74H258C257.448 74 257 74.4477 257 75C257 75.5523 257.448 76 258 76H266C266.256 76 266.512 75.9023 266.707 75.7071C266.902 75.5118 267 75.2559 267 75V68C267 67.4477 266.552 67 266 67C265.448 67 265 67.4477 265 68V72.5858L253.968 61.5537L281.235 54.9721C281.531 54.9006 281.778 54.6979 281.907 54.4215C282.035 54.1452 282.031 53.8253 281.894 53.5528L268.894 27.5528Z" fill="#E2E9ED"/>
<path d="M71.7988 119.02C72.1875 118.941 72.5866 119.098 72.816 119.422L89.816 143.422C90.1353 143.873 90.0287 144.497 89.578 144.816C89.1273 145.135 88.5032 145.029 88.184 144.578L72.5005 122.437L69.9778 134.21C69.8995 134.575 69.6243 134.866 69.264 134.965C68.9037 135.063 68.5185 134.953 68.2652 134.678L58 123.558V128C58 128.552 57.5523 129 57 129C56.4477 129 56 128.552 56 128V121C56 120.709 56.1239 120.448 56.3217 120.265C56.5119 120.09 56.752 120.002 56.992 120L57 120H65C65.5523 120 66 120.448 66 121C66 121.552 65.5523 122 65 122H59.284L68.4264 131.904L71.0222 119.79C71.1053 119.402 71.4101 119.1 71.7988 119.02Z" fill="#E2E9ED"/>
<path d="M173 66H162.443L170.936 88.6488C171.051 88.9559 171.009 89.3 170.822 89.5696C170.635 89.8391 170.328 90 170 90H161.322L168.462 115.228C168.613 115.759 168.304 116.312 167.772 116.462C167.241 116.613 166.688 116.304 166.538 115.772L159.038 89.2723C158.952 88.9708 159.013 88.6467 159.202 88.3968C159.391 88.1469 159.687 88 160 88H168.557L162 70.5146V76C162 76.5523 161.552 77 161 77C160.448 77 160 76.5523 160 76V65.0234C159.998 64.9583 160.003 64.8937 160.014 64.8305C160.04 64.6827 160.097 64.546 160.18 64.4279C160.261 64.3115 160.367 64.2114 160.495 64.137C160.594 64.0787 160.704 64.037 160.822 64.0159C160.889 64.0036 160.956 63.9984 161.023 64H173C173.552 64 174 64.4477 174 65C174 65.5523 173.552 66 173 66Z" fill="#E2E9ED"/>
<path fill-rule="evenodd" clip-rule="evenodd" d="M392 72C392 76.4183 388.418 80 384 80C379.582 80 376 76.4183 376 72C376 67.5817 379.582 64 384 64C388.418 64 392 67.5817 392 72ZM390 72C390 75.3137 387.314 78 384 78C380.686 78 378 75.3137 378 72C378 68.6863 380.686 66 384 66C387.314 66 390 68.6863 390 72Z" fill="#E2E9ED"/>
<path fill-rule="evenodd" clip-rule="evenodd" d="M106 68C111.523 68 116 63.5228 116 58C116 52.4771 111.523 48 106 48C100.477 48 96 52.4771 96 58C96 63.5228 100.477 68 106 68ZM106 66C110.418 66 114 62.4183 114 58C114 53.5817 110.418 50 106 50C101.582 50 98 53.5817 98 58C98 62.4183 101.582 66 106 66Z" fill="#E2E9ED"/>
<path fill-rule="evenodd" clip-rule="evenodd" d="M52 246C52 249.314 49.3137 252 46 252C42.6863 252 40 249.314 40 246C40 242.686 42.6863 240 46 240C49.3137 240 52 242.686 52 246ZM50 246C50 248.209 48.2091 250 46 250C43.7909 250 42 248.209 42 246C42 243.791 43.7909 242 46 242C48.2091 242 50 243.791 50 246Z" fill="#E2E9ED"/>
<path fill-rule="evenodd" clip-rule="evenodd" d="M332 280C338.627 280 344 274.627 344 268C344 261.373 338.627 256 332 256C325.373 256 320 261.373 320 268C320 274.627 325.373 280 332 280ZM332 278C337.523 278 342 273.523 342 268C342 262.477 337.523 258 332 258C326.477 258 322 262.477 322 268C322 273.523 326.477 278 332 278Z" fill="#E2E9ED"/>
<path fill-rule="evenodd" clip-rule="evenodd" d="M240 99C247.435 99 253.685 104.071 255.481 110.943C256.02 110.473 256.59 110.038 257.189 109.642C254.909 102.318 248.075 97 240 97C239.448 97 239 96.5523 239 96C239 95.4477 239.448 95 240 95C248.817 95 256.302 100.706 258.963 108.627C261.087 107.585 263.475 107 266 107C274.837 107 282 114.163 282 123C282 131.837 274.837 139 266 139C257.163 139 250 131.837 250 123C250 120.306 250.666 117.767 251.842 115.539C251.665 115.816 251.354 116 251 116C250.448 116 250 115.552 250 115C250 109.477 245.523 105 240 105C239.448 105 239 104.552 239 104C239 103.448 239.448 103 240 103C246.627 103 252 108.373 252 115C252 115.142 251.97 115.277 251.917 115.399C252.45 114.414 253.083 113.491 253.803 112.644C252.683 106.034 246.929 101 240 101C239.448 101 239 100.552 239 100C239 99.4477 239.448 99 240 99ZM280 123C280 130.732 273.732 137 266 137C258.268 137 252 130.732 252 123C252 120.255 252.79 117.695 254.155 115.534C254.332 115.814 254.644 116 255 116C255.552 116 256 115.552 256 115C256 114.424 255.97 113.855 255.91 113.295C256.461 112.722 257.061 112.195 257.702 111.723C257.898 112.785 258 113.881 258 115C258 115.552 258.448 116 259 116C259.552 116 260 115.552 260 115C260 113.485 259.832 112.009 259.512 110.591C261.452 109.575 263.659 109 266 109C273.732 109 280 115.268 280 123Z" fill="#E2E9ED"/>
<path d="M339 161C329.059 161 321 169.059 321 179C321 179.552 320.552 180 320 180C319.448 180 319 179.552 319 179C319 167.954 327.954 159 339 159C339.552 159 340 159.448 340 160C340 160.552 339.552 161 339 161Z" fill="#E2E9ED"/>
<path d="M325 179C325 171.268 331.268 165 339 165C339.552 165 340 164.552 340 164C340 163.448 339.552 163 339 163C330.163 163 323 170.163 323 179C323 179.552 323.448 180 324 180C324.552 180 325 179.552 325 179Z" fill="#E2E9ED"/>
<path d="M329 179C329 173.477 333.477 169 339 169C339.552 169 340 168.552 340 168C340 167.448 339.552 167 339 167C332.373 167 327 172.373 327 179C327 179.552 327.448 180 328 180C328.552 180 329 179.552 329 179Z" fill="#E2E9ED"/>
<path d="M121 160C121 159.448 120.552 159 120 159C119.448 159 119 159.448 119 160C119 171.046 127.954 180 139 180C139.552 180 140 179.552 140 179C140 178.448 139.552 178 139 178C129.059 178 121 169.941 121 160Z" fill="#E2E9ED"/>
<path d="M124 159C124.552 159 125 159.448 125 160C125 167.732 131.268 174 139 174C139.552 174 140 174.448 140 175C140 175.552 139.552 176 139 176C130.163 176 123 168.837 123 160C123 159.448 123.448 159 124 159Z" fill="#E2E9ED"/>
<path d="M128 159C128.552 159 129 159.448 129 160C129 165.523 133.477 170 139 170C139.552 170 140 170.448 140 171C140 171.552 139.552 172 139 172C132.373 172 127 166.627 127 160C127 159.448 127.448 159 128 159Z" fill="#E2E9ED"/>
<path d="M252 240C252 239.448 251.552 239 251 239C250.448 239 250 239.448 250 240C250 245.523 245.523 250 240 250C239.448 250 239 250.448 239 251C239 251.552 239.448 252 240 252C246.627 252 252 246.627 252 240Z" fill="#E2E9ED"/>
<path d="M256 240C256 239.448 255.552 239 255 239C254.448 239 254 239.448 254 240C254 247.732 247.732 254 240 254C239.448 254 239 254.448 239 255C239 255.552 239.448 256 240 256C248.837 256 256 248.837 256 240Z" fill="#E2E9ED"/>
<path d="M259 239C259.552 239 260 239.448 260 240C260 251.046 251.046 260 240 260C239.448 260 239 259.552 239 259C239 258.448 239.448 258 240 258C249.941 258 258 249.941 258 240C258 239.448 258.448 239 259 239Z" fill="#E2E9ED"/>
</g>
</svg>
