<svg width="416" height="312" viewBox="0 0 416 312" fill="none" xmlns="http://www.w3.org/2000/svg">
<g style="mix-blend-mode:multiply">
<path fill-rule="evenodd" clip-rule="evenodd" d="M140.815 48.5468C153.363 40.0548 170.309 35 186 35C193.532 35 202.853 38.6799 211.939 44.6323C221.051 50.6018 230.047 58.9346 236.934 68.4121C239.208 71.542 241.258 74.8039 243.006 78.1534C248.222 75.3381 254.445 73.1894 261.843 72.0124C299.573 66.0099 316.441 97.7943 307.917 117.399C307.828 117.603 307.739 117.809 307.649 118.017C313.581 120.282 319.13 124.37 323.88 129.845C331.395 138.505 336.966 150.69 338.99 164.859C339.056 165.32 339.117 165.782 339.172 166.242C342.705 165.381 346.257 164.601 349.805 163.894C383.158 157.249 416.492 157 432 157C432.552 157 433 157.448 433 158C433 158.552 432.552 159 432 159C416.508 159 383.342 159.251 350.195 165.856C346.579 166.576 342.967 167.372 339.381 168.25C340.517 181.214 337.499 193.382 331.99 202.877C326.573 212.212 318.695 219.041 309.912 221.401C307.887 228.559 303.86 234.793 297.625 239.781C287.262 248.071 274.257 247.885 262.661 244.273C257.998 242.82 253.527 240.804 249.497 238.53C242.896 246.603 237.213 251.835 232.294 255.121C227.685 258.199 223.722 259.584 220.288 259.975C216.85 260.367 214.011 259.754 211.673 258.945C210.248 258.452 208.768 257.922 207.247 257.358C196.697 270.061 181.647 280 161 280C149.607 280 142.023 277.342 137.183 273.078C133.925 270.209 131.979 266.672 130.935 262.883C123.62 262.387 118.011 260.599 113.775 257.901C108.417 254.488 105.349 249.677 103.791 244.418C101.668 237.249 102.341 229.222 103.788 222.61C99.1192 220.852 94.8412 218.793 91.1699 216.383C83.2162 211.16 78 204.199 78 195C78 188.326 82.1627 183.655 88.5462 180.423C83.8586 174.897 80.8864 168.114 79.3319 160.401C78.5199 160.363 77.7065 160.325 76.8919 160.289C45.5239 158.894 12.5148 158.953 -7.98993 158.99C-10.9312 158.995 -13.6151 159 -16 159C-16.5523 159 -17 158.552 -17 158C-17 157.448 -16.5523 157 -16 157C-13.6189 157 -10.9377 156.995 -7.99841 156.99C12.5024 156.953 45.5621 156.893 76.9808 158.291C77.6415 158.32 78.3015 158.35 78.9607 158.381C78.308 154.464 78 150.324 78 146C78 123.312 94.7204 96.2088 122.506 85.5774C122.293 84.7397 122.127 83.9288 122.011 83.1465C119.931 69.1074 128.28 57.0297 140.815 48.5468ZM123.065 87.508C96.1568 97.8836 80 124.16 80 146C80 150.396 80.3249 154.567 81.0056 158.479C97.5365 159.285 113.458 160.518 126.663 162.399C128.229 162.622 129.758 162.854 131.245 163.096C134.039 158.737 137.083 154.31 140.389 149.9C138.617 149.703 136.688 149.588 134.66 149.499C133.684 149.456 132.688 149.42 131.68 149.384C128.291 149.261 124.772 149.133 121.506 148.743C117.28 148.238 113.285 147.278 110.397 145.185C107.425 143.029 105.734 139.752 106.002 134.945C106.265 130.21 107.986 126.6 110.699 123.887C113.391 121.195 117.002 119.442 120.971 118.29C126.685 116.631 133.306 116.174 139.356 116.048C137.82 113.881 136.346 111.749 134.95 109.662C129.452 101.441 125.098 93.8186 123.065 87.508ZM141.785 116.013C139.971 113.473 138.238 110.98 136.612 108.55C131.063 100.252 126.853 92.8023 124.942 86.8163C130.828 84.7473 137.204 83.4336 144.017 83.0767C142.696 88.1143 143.339 92.4958 145.639 96.1388C149.368 102.046 157.234 105.615 166.859 106.99C170.139 107.459 175.191 108.549 181.441 110.171C176.985 113.142 172.754 116.33 168.741 119.679C161.325 116.794 152.723 116 146 116H145.928C144.607 116 143.219 116 141.785 116.013ZM140.767 118.025C134.411 118.111 127.436 118.495 121.529 120.21C117.748 121.308 114.484 122.93 112.113 125.301C109.764 127.65 108.235 130.79 107.998 135.055C107.766 139.248 109.2 141.846 111.571 143.565C114.028 145.347 117.595 146.262 121.744 146.757C124.919 147.136 128.322 147.26 131.695 147.383C132.718 147.42 133.737 147.457 134.747 147.501C137.193 147.608 139.591 147.756 141.785 148.058C145.28 143.503 149.056 138.977 153.126 134.573C148.838 128.975 144.632 123.405 140.767 118.025ZM154.511 133.091C150.602 127.986 146.773 122.917 143.217 118.004C144.167 118 145.097 118 146 118C152.311 118 160.151 118.717 166.992 121.161C162.562 124.97 158.406 128.972 154.511 133.091ZM154.361 136.183C150.671 140.191 147.225 144.3 144.015 148.44C144.827 148.61 145.597 148.812 146.316 149.051C149.101 149.98 153.007 150.405 157.476 150.447C159.921 150.47 162.513 150.379 165.149 150.2C163.193 147.646 161.205 145.067 159.208 142.477L159.07 142.299C157.501 140.263 155.927 138.222 154.361 136.183ZM167.526 150.016C165.313 147.12 163.056 144.192 160.792 141.256L160.681 141.112C159.034 138.976 157.383 136.835 155.743 134.699C159.891 130.295 164.341 126.026 169.104 121.987C169.598 122.197 170.085 122.418 170.564 122.65C174.326 124.47 177.545 126.93 179.765 130.216C181.978 133.491 183.242 137.649 183.001 142.955C182.927 144.58 182.781 146.25 182.558 147.947C179.244 148.575 175.509 149.155 171.661 149.598C170.289 149.757 168.906 149.897 167.526 150.016ZM166.6 152.099C163.472 152.344 160.37 152.475 157.457 152.447C152.919 152.404 148.766 151.976 145.684 150.949C144.772 150.645 143.756 150.406 142.654 150.216C139.305 154.635 136.221 159.077 133.391 163.457C137.833 164.228 141.874 165.093 145.407 166.062C150.631 167.495 154.836 169.18 157.59 171.193C158.912 172.159 160.072 173.15 161.081 174.162C162.613 174.257 164.107 174.356 165.553 174.456C167.798 174.61 169.931 174.769 171.924 174.922C173.966 172.186 175.697 169.277 177.141 166.282C173.888 161.735 170.317 156.971 166.6 152.099ZM178.098 164.187C175.239 160.216 172.154 156.094 168.959 151.894C169.939 151.801 170.918 151.697 171.89 151.585C175.497 151.169 179.037 150.632 182.247 150.04C181.471 154.702 180.118 159.523 178.098 164.187ZM178.456 168.135C177.245 170.53 175.852 172.867 174.265 175.105C175.399 175.194 176.479 175.281 177.497 175.363C178.114 175.412 178.709 175.46 179.281 175.505C180.972 175.64 182.446 175.754 183.675 175.839C183.335 175.312 182.988 174.781 182.634 174.244C181.328 172.265 179.929 170.225 178.456 168.135ZM186.139 175.981C185.549 175.049 184.937 174.102 184.303 173.143C182.796 170.86 181.169 168.498 179.448 166.074C181.919 160.667 183.503 155.034 184.337 149.638C188.731 148.756 192.32 147.793 194.318 146.951C198.074 146.025 200.791 146.278 203.889 147.999C206.712 149.567 209.855 152.354 214.29 156.718C212.108 161.313 210.518 165.752 209.434 169.893C208.981 171.621 208.616 173.299 208.333 174.916C197.99 175.791 189.885 176 187 176C186.757 176 186.47 175.993 186.139 175.981ZM185 177.927C183.499 177.842 181.501 177.688 179.122 177.499C178.549 177.453 177.954 177.406 177.336 177.356C175.948 177.245 174.449 177.125 172.854 177C172.623 177.297 172.388 177.591 172.149 177.883C170.416 180.004 168.49 182.009 166.359 183.857C166.558 185.038 166.623 186.233 166.566 187.438C166.298 193.122 163.328 198.849 159.492 204.207C155.942 209.165 151.56 213.927 147.658 218.168C147.331 218.524 147.007 218.875 146.687 219.223C144.612 221.483 142.716 223.575 141.179 225.471C140.283 226.578 139.527 227.596 138.936 228.523C147.473 229.603 155.855 230.219 163.239 230.568C161.353 227.926 160.088 225.157 159.682 222.28C158.882 216.612 161.455 210.858 168.368 205.225C176.764 198.384 184.6 195.472 191.834 195.232C192.177 195.22 192.519 195.215 192.859 195.216C192.529 192.995 191.625 190.344 190.207 187.309C188.871 184.451 187.104 181.303 185 177.927ZM194.887 195.288C194.56 192.686 193.535 189.706 192.019 186.463C190.793 183.839 189.226 181.002 187.394 177.999C190.557 177.982 198.264 177.761 208.015 176.95C207.548 180.358 207.458 183.457 207.685 186.139C208.056 190.515 209.292 193.996 211.349 195.759C214.753 198.677 220.879 200.64 227.417 199.545C227.084 203.242 226.586 207.019 226.011 210.852C225.889 211.663 225.742 212.522 225.57 213.422C221.485 209.001 216.72 204.483 211.305 201.055C206.387 197.942 200.904 195.711 194.887 195.288ZM192.999 197.216C192.635 197.214 192.268 197.219 191.9 197.231C185.191 197.453 177.763 200.15 169.632 206.775C163.045 212.142 160.993 217.263 161.662 222.001C162.076 224.933 163.545 227.841 165.837 230.681C172.354 230.943 177.955 231 182 231C182.429 231 182.863 230.996 183.303 230.989C189.876 219.261 192.952 206.447 192.999 197.216ZM185.623 230.921C191.947 219.223 194.935 206.596 194.999 197.302C200.509 197.741 205.589 199.804 210.236 202.745C215.747 206.234 220.61 210.934 224.799 215.541C224.888 215.64 224.977 215.737 225.065 215.835C224.501 218.342 223.758 221.1 222.822 224.016C210.707 227.917 196.784 230.452 185.623 230.921ZM182.135 233C182.09 233 182.045 233 182 233C178.344 233 173.406 232.954 167.662 232.751C168.744 233.884 169.951 235.004 171.268 236.109C173.023 237.582 174.955 239.013 177.017 240.396C177.946 239.226 178.833 238.028 179.678 236.806C180.54 235.558 181.359 234.287 182.135 233ZM178.697 241.496C179.613 240.336 180.488 239.15 181.322 237.944C182.447 236.317 183.499 234.653 184.479 232.963C195.627 232.639 209.665 230.199 222.039 226.361C219.217 234.491 214.946 243.617 208.942 251.91C208.19 252.948 207.411 253.973 206.605 254.981C197.486 251.528 187.169 246.903 178.697 241.496ZM175.744 241.95C173.684 240.561 171.748 239.123 169.982 237.641C168.074 236.04 166.345 234.372 164.867 232.643C156.82 232.3 147.453 231.644 137.913 230.408C136.396 233.949 131.267 245.971 131.998 257.059C132.085 258.386 132.256 259.693 132.526 260.967C133.94 261.027 135.422 261.039 136.975 261C153.949 260.576 166.708 252.631 175.744 241.95ZM133.048 262.988C134.325 263.03 135.65 263.034 137.025 263C154.786 262.556 168.089 254.174 177.426 243.056C185.911 248.501 196.176 253.137 205.264 256.611C195.02 268.722 180.616 278 161 278C149.893 278 142.852 275.408 138.505 271.578C135.771 269.17 134.043 266.22 133.048 262.988ZM130.462 260.843C130.232 259.639 130.083 258.417 130.002 257.191C129.269 246.071 134.118 234.209 135.856 230.133C130.973 229.458 126.067 228.626 121.29 227.603C115.862 226.44 110.583 225.025 105.685 223.301C104.327 229.637 103.736 237.19 105.709 243.85C107.151 248.72 109.958 253.098 114.85 256.214C118.628 258.621 123.706 260.309 130.462 260.843ZM106.138 221.34C110.982 223.057 116.248 224.477 121.71 225.647C126.644 226.705 131.722 227.555 136.77 228.239C137.492 226.978 138.48 225.626 139.625 224.212C141.206 222.261 143.142 220.126 145.214 217.87C145.531 217.526 145.85 217.179 146.173 216.828C150.09 212.57 154.391 207.896 157.865 203.043C161.636 197.776 164.327 192.44 164.568 187.343C164.599 186.682 164.589 186.021 164.534 185.362C156.31 191.804 145.308 196 131 196C125.635 196 120.729 195.605 116.26 194.841C111.868 204.444 109.177 211.877 107.942 215.336C107.322 217.072 106.691 219.108 106.138 221.34ZM117.13 192.959C121.329 193.643 125.943 194 131 194C145.364 194 156.197 189.654 164.158 183.1C163.559 180.727 162.301 178.386 160.183 176.111C150.635 175.534 139.642 175.113 128.899 175.375C127.976 175.397 127.055 175.425 126.137 175.458C122.608 181.701 119.619 187.629 117.13 192.959ZM123.788 175.554C120.388 181.64 117.502 187.408 115.092 192.595C104.938 190.618 97.3428 186.63 91.8725 181.096C92.7556 180.731 93.6819 180.384 94.6491 180.056C102.545 177.38 112.861 176.062 123.788 175.554ZM127.303 173.418C127.818 173.402 128.334 173.388 128.851 173.375C138.779 173.133 148.907 173.471 157.91 173.975C157.439 173.584 156.939 173.194 156.41 172.807C153.955 171.013 150.034 169.406 144.878 167.991C141.203 166.983 136.945 166.085 132.222 165.285C130.483 168.033 128.844 170.751 127.303 173.418ZM130.079 164.934C128.259 167.834 126.55 170.698 124.948 173.502C113.486 173.969 102.464 175.296 94.0071 178.162C92.7619 178.584 91.5649 179.043 90.4253 179.54C85.8959 174.364 82.9614 167.933 81.394 160.5C97.7206 161.306 113.391 162.529 126.381 164.379C127.64 164.558 128.873 164.743 130.079 164.934ZM89.9303 181.966C89.9621 181.999 89.9941 182.033 90.0261 182.066C95.7823 188.084 103.741 192.341 114.233 194.463C109.92 203.941 107.276 211.255 106.058 214.664C105.444 216.383 104.811 218.411 104.25 220.646C99.7919 218.952 95.7349 216.988 92.2676 214.711C84.6588 209.715 80 203.301 80 195C80 189.244 83.635 185.015 89.9303 181.966ZM162.952 176.285C164.297 178.026 165.238 179.822 165.825 181.657C167.499 180.136 169.035 178.514 170.438 176.815C168.84 176.694 167.162 176.571 165.416 176.451C164.608 176.395 163.787 176.34 162.952 176.285ZM208.574 255.716C209.858 256.188 211.112 256.634 212.327 257.055C214.473 257.798 217.002 258.337 220.061 257.988C223.124 257.639 226.788 256.393 231.183 253.458C235.857 250.336 241.331 245.323 247.747 237.51C242.532 234.371 238.172 230.85 235.263 227.676C234.073 226.377 232.747 224.806 231.303 223.085C229.098 223.974 226.788 224.815 224.408 225.602C221.541 234.248 217.042 244.132 210.562 253.082C209.919 253.97 209.257 254.848 208.574 255.716ZM225.161 223.238C226.804 222.673 228.404 222.084 229.949 221.472C228.921 220.25 227.835 218.971 226.691 217.664C226.264 219.427 225.756 221.294 225.161 223.238ZM227.238 215.262C228.913 217.142 230.467 218.979 231.894 220.678C235.393 219.204 238.564 217.612 241.257 215.929C246 212.966 249.084 209.828 250.044 206.706C250.472 205.315 250.445 203.259 249.956 200.595C249.471 197.958 248.557 194.842 247.324 191.4C246.723 189.721 246.048 187.97 245.315 186.167C240.887 193.67 235.169 197.575 229.509 199.091C229.494 199.095 229.48 199.099 229.466 199.102C229.126 203.072 228.596 207.1 227.989 211.148C227.799 212.416 227.55 213.793 227.238 215.262ZM229.629 196.977C234.828 195.402 240.213 191.507 244.341 183.823C242.821 180.234 241.101 176.476 239.289 172.688C235.492 173.451 231.658 174.108 227.879 174.672C229.864 181.658 230.157 189.19 229.629 196.977ZM227.281 172.739C230.96 172.195 234.693 171.562 238.393 170.827C238.008 170.032 237.619 169.236 237.228 168.442C233.838 161.554 230.286 154.76 227.216 148.888C226.726 147.95 226.248 147.037 225.785 146.15C225.327 145.271 224.882 144.417 224.453 143.591C221.33 147.881 218.773 152.155 216.715 156.303C217.039 156.626 217.37 156.956 217.707 157.293C222.374 161.96 225.41 167.161 227.281 172.739ZM215.798 158.213C215.961 158.376 216.126 158.54 216.293 158.707C220.612 163.026 223.471 167.836 225.266 173.03C220.085 173.757 215.046 174.313 210.398 174.735C210.656 173.337 210.978 171.89 211.368 170.4C212.371 166.571 213.823 162.468 215.798 158.213ZM210.06 176.773C214.981 176.334 220.353 175.746 225.881 174.963C227.904 181.91 228.173 189.498 227.587 197.483C221.408 198.678 215.659 196.819 212.651 194.241C211.208 193.004 210.036 190.2 209.678 185.971C209.455 183.336 209.556 180.231 210.06 176.773ZM215.218 154.826C217.406 150.5 220.12 146.056 223.429 141.609C221.253 137.376 219.637 134.075 219.051 132.316C218.264 129.953 217.745 126.117 217.85 121.515C205.38 117.05 193.519 113.404 184.013 110.85C183.533 111.177 183.047 111.504 182.555 111.832C178.45 114.568 174.539 117.491 170.815 120.557C171.023 120.653 171.23 120.75 171.436 120.85C175.424 122.78 178.955 125.445 181.422 129.096C183.897 132.759 185.258 137.351 184.999 143.045C184.932 144.511 184.809 146.013 184.625 147.538C188.658 146.705 191.875 145.823 193.606 145.081L193.68 145.049L193.757 145.03C197.962 143.979 201.229 144.233 204.861 146.251C207.822 147.896 211.017 150.712 215.218 154.826ZM186.168 109.363C195.297 111.864 206.351 115.291 217.938 119.423C217.939 119.413 217.939 119.403 217.94 119.393C218.286 113.834 219.539 107.319 222.304 100.898C222.686 100.011 223.097 99.1272 223.537 98.2477C217.754 96.1813 211.825 94.2908 205.891 92.5975C201.041 97.8533 194.567 103.475 186.168 109.363ZM207.376 90.9429C213.134 92.6063 218.877 94.4522 224.479 96.4606C228.1 89.9222 233.481 83.7621 241.265 79.1396C239.563 75.8702 237.557 72.6715 235.316 69.5878C228.578 60.3154 219.762 52.1482 210.843 46.3052C201.897 40.4451 192.968 37 186 37C170.691 37 154.137 41.9452 141.935 50.2032C129.72 58.4703 122.069 69.8926 123.989 82.8535C124.086 83.5068 124.222 84.1849 124.394 84.8865C130.633 82.7068 137.403 81.3515 144.645 81.0447C145.602 78.3444 147.098 75.4708 149.175 72.4353C155.888 62.6234 166.941 58.0424 177.424 55.8953C186.992 53.9357 196.239 53.9739 201.567 53.9959C202.082 53.998 202.561 54 203 54C207.481 54 211.574 55.5835 214.37 58.5661C217.18 61.5627 218.589 65.8756 217.866 71.1362C217.094 76.7495 213.901 83.4524 207.376 90.9429ZM146.797 80.9842C147.689 78.6875 149.012 76.2156 150.825 73.5647C157.112 64.3766 167.559 59.9576 177.826 57.8547C187.179 55.9389 196.229 55.9749 201.562 55.9961C202.077 55.9981 202.557 56 203 56C207.019 56 210.551 57.4165 212.911 59.9339C215.258 62.4373 216.536 66.1244 215.884 70.8638C215.155 76.1687 212.001 82.7766 205.244 90.3358C183.519 84.233 161.798 80.7608 146.797 80.9842ZM146.111 82.9976C160.671 82.6578 182.12 85.9981 203.724 91.9878C198.821 97.1683 192.247 102.769 183.642 108.681C176.54 106.795 170.792 105.532 167.141 105.01C157.724 103.665 150.59 100.234 147.33 95.071C145.315 91.8796 144.692 87.8686 146.111 82.9976ZM242.164 80.9322C234.873 85.2924 229.817 91.0479 226.384 97.1516C227.537 97.5751 228.683 98.0055 229.822 98.4425C235.85 100.756 241.673 103.261 247.122 105.934C247.383 103.749 247.435 101.548 247.299 99.3427C246.919 93.1766 245.069 86.9498 242.164 80.9322ZM246.81 108.01C241.267 105.266 235.306 102.689 229.105 100.31C227.889 99.8429 226.664 99.3838 225.432 98.9327C224.968 99.8472 224.538 100.767 224.141 101.689C221.481 107.866 220.271 114.15 219.936 119.517C219.923 119.722 219.912 119.926 219.902 120.128C224.516 121.797 229.202 123.574 233.872 125.447C234.888 125.854 235.902 126.266 236.916 126.682C242.516 120.847 245.627 114.517 246.81 108.01ZM238.894 127.5C244.276 121.704 247.382 115.418 248.668 108.945C255.299 112.331 261.281 115.961 266.29 119.781C269.95 122.571 273.06 125.439 275.524 128.364C272.872 131.216 270.29 134.432 267.819 137.873C267.226 138.698 266.639 139.536 266.059 140.386C257.671 135.786 248.37 131.453 238.894 127.5ZM235.377 128.213C234.628 127.907 233.878 127.604 233.128 127.303C228.685 125.522 224.23 123.828 219.838 122.232C219.8 126.371 220.29 129.709 220.949 131.684C221.451 133.19 222.83 136.045 224.773 139.845C227.808 135.953 231.305 132.07 235.312 128.274C235.334 128.254 235.355 128.233 235.377 128.213ZM225.783 141.809C228.885 137.751 232.501 133.693 236.688 129.726C236.927 129.499 237.163 129.271 237.395 129.043C247.02 133.034 256.458 137.412 264.939 142.053C259.523 150.242 254.717 159.367 250.996 167.842C247.578 168.805 244.024 169.659 240.416 170.415C239.955 169.462 239.49 168.509 239.022 167.558C235.621 160.648 232.056 153.83 228.987 147.959C228.497 147.022 228.02 146.11 227.558 145.225C226.935 144.03 226.341 142.889 225.783 141.809ZM241.307 172.271C242.788 175.379 244.209 178.471 245.509 181.471C246.055 180.28 246.573 179.012 247.059 177.661C247.916 175.28 248.896 172.776 249.983 170.196C247.148 170.959 244.241 171.649 241.307 172.271ZM252.452 169.506C251.126 172.571 249.948 175.541 248.941 178.339C248.212 180.363 247.411 182.218 246.549 183.914C247.533 186.271 248.43 188.555 249.207 190.725C250.459 194.22 251.411 197.449 251.923 200.233C252.43 202.991 252.528 205.435 251.956 207.294C250.775 211.13 247.164 214.597 242.317 217.625C239.668 219.281 236.596 220.839 233.239 222.28C234.523 223.808 235.687 225.178 236.737 226.324C239.557 229.4 243.857 232.861 249.019 235.94C254.392 229.218 260.408 220.566 267.145 209.481C270.575 203.838 274.856 198.804 279.797 194.314C279.824 193.491 279.905 192.592 280.03 191.634C280.33 189.324 280.902 186.555 281.679 183.46C283.233 177.267 285.631 169.69 288.41 161.713C288.718 160.827 289.032 159.936 289.349 159.042C287.063 156.817 284.412 154.608 281.458 152.424C279.09 156.285 275.218 159.534 270.466 162.258C265.365 165.183 259.154 167.565 252.452 169.506ZM282.419 150.648C285.24 152.721 287.816 154.834 290.086 156.978C294.918 143.534 300.568 129.463 304.958 119.208C302.345 118.414 299.679 118 297 118C292.571 118 287.893 120.155 283.173 123.921C281.499 125.257 279.831 126.786 278.181 128.475C281.729 133.079 283.837 137.93 283.999 142.968C284.089 145.749 283.522 148.304 282.419 150.648ZM276.787 129.944C280.021 134.216 281.858 138.601 282.001 143.032C282.074 145.318 281.641 147.455 280.761 149.454C278.323 147.732 275.72 146.039 272.988 144.38C271.313 143.362 269.586 142.356 267.815 141.361C268.353 140.576 268.895 139.802 269.443 139.04C271.817 135.734 274.278 132.663 276.787 129.944ZM266.694 143.025C268.496 144.035 270.25 145.057 271.95 146.089C274.743 147.786 277.381 149.507 279.831 151.246C277.714 154.777 274.138 157.848 269.471 160.523C264.946 163.118 259.476 165.29 253.512 167.105C257.109 159.122 261.638 150.651 266.694 143.025ZM276.913 126.911C274.339 123.886 271.152 120.973 267.503 118.19C262.242 114.179 255.959 110.39 249.016 106.878C249.369 104.343 249.453 101.784 249.295 99.2198C248.894 92.7084 246.938 86.1883 243.906 79.9407C248.941 77.2158 254.966 75.1316 262.157 73.9876C298.463 68.2117 313.923 98.5687 306.083 116.601C305.974 116.851 305.865 117.104 305.754 117.36C302.898 116.469 299.965 116 297 116C291.929 116 286.817 118.455 281.925 122.358C280.237 123.705 278.563 125.234 276.913 126.911ZM306.857 119.856C302.378 130.311 296.563 144.799 291.658 158.519C294.236 161.142 296.341 163.809 297.87 166.507C300.161 170.551 302.184 174.544 303.921 178.466C314.254 173.479 325.615 169.658 337.215 166.727C337.154 166.2 337.086 165.671 337.01 165.141C335.034 151.31 329.605 139.495 322.37 131.155C317.769 125.853 312.46 121.977 306.857 119.856ZM337.415 168.74C325.958 171.65 314.815 175.422 304.717 180.303C308.958 190.337 311.296 199.877 311.463 208.56C311.535 212.256 311.212 215.797 310.475 219.152C318.2 216.704 325.262 210.487 330.26 201.873C335.518 192.811 338.439 181.174 337.415 168.74ZM308.284 219.74C309.154 216.248 309.539 212.524 309.464 208.598C309.303 200.255 307.056 191.004 302.92 181.189C295.086 185.129 287.925 189.762 281.792 195.211C281.807 195.831 281.867 196.347 281.97 196.757C282.973 200.769 284.687 207.34 288.436 212.54C290.3 215.126 292.646 217.34 295.627 218.735C298.6 220.126 302.271 220.734 306.844 220.012C307.326 219.936 307.806 219.845 308.284 219.74ZM279.954 196.898C275.645 200.985 271.9 205.51 268.855 210.519C262.173 221.512 256.172 230.168 250.771 236.951C254.601 239.089 258.838 240.987 263.256 242.363C274.521 245.872 286.738 245.929 296.375 238.219C301.949 233.76 305.667 228.25 307.675 221.9C307.502 221.931 307.329 221.96 307.156 221.988C302.229 222.766 298.15 222.124 294.779 220.546C291.417 218.973 288.825 216.499 286.814 213.71C282.813 208.16 281.027 201.231 280.03 197.243C280.002 197.131 279.977 197.016 279.954 196.898ZM281.947 192.429C287.913 187.381 294.738 183.056 302.125 179.35C300.412 175.474 298.409 171.515 296.13 167.493C294.83 165.199 293.069 162.905 290.911 160.624C290.705 161.208 290.501 161.791 290.299 162.371C287.529 170.324 285.152 177.838 283.618 183.947C282.851 187.003 282.3 189.688 282.013 191.892C281.989 192.075 281.967 192.254 281.947 192.429Z" fill="#E2E9ED"/>
</g>
</svg>
