<svg width="24" height="24" viewBox="0 0 24 24" fill="none" xmlns="http://www.w3.org/2000/svg">
<path fill-rule="evenodd" clip-rule="evenodd" d="M18.9241 5.61722C18.8757 5.50014 18.804 5.3904 18.7092 5.29502C18.7078 5.2936 18.7064 5.29219 18.705 5.29078C18.5242 5.11106 18.2751 5 18 5H17.9998H8C7.44772 5 7 5.44772 7 6C7 6.55228 7.44772 7 8 7H15.5858L5.29289 17.2929C4.90237 17.6834 4.90237 18.3166 5.29289 18.7071C5.68342 19.0976 6.31658 19.0976 6.70711 18.7071L17 8.41421V16C17 16.5523 17.4477 17 18 17C18.5523 17 19 16.5523 19 16V6.00069V6C19 5.999 19 5.998 19 5.997C18.9996 5.8625 18.9727 5.73425 18.9241 5.61722Z" fill="#F4662A"/>
</svg>
